<svg style="fill:#67310b;" xmlns="http://www.w3.org/2000/svg" xmlns:xlink="http://www.w3.org/1999/xlink" version="1.1" x="0px" y="0px" viewBox="0 0 100 100" enable-background="new 0 0 100 100" xml:space="preserve"><g><path d="M49.8,94.8c-10.4,0-20.8-4.6-27.7-12.3c-6-6.7-8.7-15-7.8-23.3c1.4-12.8,4-24.3,5.5-31.1c0.5-2.3,0.9-4.1,1.1-5.1   c0.5-2.7-3.3-3.8-3.3-3.8c-0.8-0.2-1.2-1-1.1-1.7l2.2-11c0.2-0.8,0.9-1.3,1.7-1.2c1.3,0.2,12.3,2.2,14.3,7.5   c1.7,4.5,0.6,9.1-0.2,12.1c-0.1,0.4-0.2,0.8-0.3,1.2l-0.1,0.3c-3,12.9-5,23.5-5.9,31.5c-0.6,5.7,1.1,11.3,5,15.6   c4.2,4.7,10.3,7.4,16.8,7.4c0.8,0,1.5,0.7,1.5,1.5s-0.7,1.5-1.5,1.5c-7.3,0-14.3-3.1-19-8.4c-4.5-5-6.5-11.4-5.8-18   c0.9-8.1,2.9-18.8,6-31.9l0.1-0.3c0.1-0.4,0.2-0.8,0.3-1.3c0.7-2.8,1.7-6.7,0.3-10.3c-1-2.5-6.5-4.5-10.6-5.4l-1.7,8.2   c2.2,1,4.7,3.2,4.1,6.7c-0.2,1.1-0.6,2.9-1.1,5.3c-1.5,6.8-4,18.2-5.5,30.8c-0.8,7.5,1.7,15,7,21c6.3,7.1,15.9,11.3,25.5,11.3   c0.8,0,1.5,0.7,1.5,1.5S50.6,94.8,49.8,94.8z"></path><circle cx="22.8" cy="48.2" r="1.5"></circle><circle cx="21.8" cy="56.1" r="1.5"></circle><circle cx="21.3" cy="63.2" r="1.5"></circle><circle cx="23.3" cy="70.6" r="1.5"></circle><circle cx="26.9" cy="77.2" r="1.5"></circle><circle cx="32.9" cy="82.2" r="1.5"></circle><path d="M50.2,94.8c-0.8,0-1.5-0.7-1.5-1.5s0.7-1.5,1.5-1.5c9.6,0,19.1-4.2,25.5-11.3c5.4-6,7.9-13.5,7-21   c-1.4-12.6-3.9-24-5.5-30.8c-0.5-2.4-0.9-4.2-1.1-5.3c-0.6-3.5,2-5.7,4.1-6.7l-1.7-8.2c-4.1,0.9-9.6,2.9-10.6,5.4   c-1.4,3.6-0.4,7.5,0.3,10.3c0.1,0.4,0.2,0.9,0.3,1.3l0.1,0.3c3,13,5.1,23.8,6,31.9c0.7,6.6-1.3,13-5.8,18c-4.8,5.3-11.7,8.4-19,8.4   c-0.8,0-1.5-0.7-1.5-1.5s0.7-1.5,1.5-1.5c6.5,0,12.6-2.7,16.8-7.4c3.9-4.3,5.7-9.9,5-15.6c-0.9-8-2.9-18.6-5.9-31.5L65.8,26   c-0.1-0.4-0.2-0.8-0.3-1.2c-0.8-3-1.9-7.6-0.2-12.1c2-5.3,13.1-7.3,14.3-7.5c0.8-0.1,1.6,0.4,1.7,1.2l2.2,11   c0.2,0.8-0.3,1.5-1.1,1.7c-0.1,0-3.8,1.1-3.3,3.8c0.2,1,0.6,2.8,1.1,5.1c1.5,6.9,4.1,18.4,5.5,31.1c0.9,8.4-1.8,16.7-7.8,23.3   C71,90.2,60.7,94.8,50.2,94.8z"></path><circle cx="77.2" cy="48.2" r="1.5"></circle><circle cx="78.2" cy="56.1" r="1.5"></circle><circle cx="78.7" cy="63.2" r="1.5"></circle><circle cx="76.7" cy="70.6" r="1.5"></circle><circle cx="73.1" cy="77.2" r="1.5"></circle><circle cx="67.1" cy="82.2" r="1.5"></circle></g></svg>
